<svg width="32" height="37" viewBox="0 0 32 37" fill="none" xmlns="http://www.w3.org/2000/svg">
<path d="M27.6809 6.34122H21.0012H16.8246V11.2222V15.3136H21.0012V11.2222H27.6809V18.7146H15.5357V0.557063H15.519V0H4.31831H0V4.88098V13.8508V18.7318H4.31831H4.96427V13.8508H4.31831V4.88098H11.2174V18.7146V23.5956H15.5357H27.6809H32V18.7146V11.2222V6.34122H27.6809Z" fill="#FAEC33"/>
<path d="M22.1676 18.6069H22.0426V18.7319V24.9309H10.0537V6.34131V6.21631H9.92866H5.61035H5.48535V6.34131V25.0559V29.9369V30.0619H5.61035H9.92866H22.1676H26.4859H26.6109V29.9369V25.0559V18.7319V18.6069H26.4859H22.1676Z" fill="white" stroke="#235786" stroke-width="0.25"/>
<path d="M26.6113 31.5278V31.4028H26.4863H22.168H22.043V31.5278V36.4088V36.5338H22.168H26.4863H26.6113V36.4088V31.5278Z" fill="white" stroke="#235786" stroke-width="0.25"/>
<path d="M20.8486 31.5278H16.5303V36.4088H20.8486V31.5278Z" fill="#FAEC33"/>
</svg>
